HIERARCHY
ROOT Hips
{
	OFFSET -0.001795 -0.223333 0.028219
	CHANNELS 6 Xposition Yposition Zposition Zrotation Yrotation Xrotation 
	JOINT LeftUpLeg
	{
		OFFSET 0.069520 -0.091406 -0.006815
		CHANNELS 3 Zrotation Yrotation Xrotation
		JOINT LeftLeg
		{
			OFFSET 0.034277 -0.375199 -0.004496
			CHANNELS 3 Zrotation Yrotation Xrotation
			JOINT LeftFoot
			{
				OFFSET -0.013596 -0.397961 -0.043693
				CHANNELS 3 Zrotation Yrotation Xrotation
				JOINT LeftToe
				{
					OFFSET 0.026358 -0.055791 0.119288
					CHANNELS 3 Zrotation Yrotation Xrotation
					End Site
					{
						OFFSET 0.000000 0.000000 0.000000
					}
				}
			}
		}
	}
	JOINT RightUpLeg
	{
		OFFSET -0.067670 -0.090522 -0.004320
		CHANNELS 3 Zrotation Yrotation Xrotation
		JOINT RightLeg
		{
			OFFSET -0.038290 -0.382569 -0.008850
			CHANNELS 3 Zrotation Yrotation Xrotation
			JOINT RightFoot
			{
				OFFSET 0.015774 -0.398415 -0.042312
				CHANNELS 3 Zrotation Yrotation Xrotation
				JOINT RightToe
				{
					OFFSET -0.025372 -0.048144 0.123348
					CHANNELS 3 Zrotation Yrotation Xrotation
					End Site
					{
						OFFSET 0.000000 0.000000 0.000000
					}
				}
			}
		}
	}
	JOINT Spine
	{
		OFFSET -0.002533 0.108963 -0.026696
		CHANNELS 3 Zrotation Yrotation Xrotation
		JOINT Spine1
		{
			OFFSET 0.005487 0.135180 0.001092
			CHANNELS 3 Zrotation Yrotation Xrotation
			JOINT Spine2
			{
				OFFSET 0.001457 0.052922 0.025425
				CHANNELS 3 Zrotation Yrotation Xrotation
				JOINT Neck
				{
					OFFSET -0.002778 0.213870 -0.042857
					CHANNELS 3 Zrotation Yrotation Xrotation
					JOINT Head
					{
						OFFSET 0.005152 0.064970 0.051349
						CHANNELS 3 Zrotation Yrotation Xrotation
						End Site
						{
							OFFSET 0.000000 0.000000 0.000000
						}
					}
				}
				JOINT LeftShoulder
				{
					OFFSET 0.078845 0.121749 -0.034090
					CHANNELS 3 Zrotation Yrotation Xrotation
					JOINT LeftArm
					{
						OFFSET 0.090977 0.030469 -0.008868
						CHANNELS 3 Zrotation Yrotation Xrotation
						JOINT LeftForeArm
						{
							OFFSET 0.259612 -0.012772 -0.027456
							CHANNELS 3 Zrotation Yrotation Xrotation
							JOINT LeftHand
							{
								OFFSET 0.249234 0.008986 -0.001171
								CHANNELS 3 Zrotation Yrotation Xrotation
								End Site
								{
									OFFSET 0.000000 0.000000 0.000000
								}
							}
						}
					}
				}
				JOINT RightShoulder
				{
					OFFSET -0.081759 0.118833 -0.038615
					CHANNELS 3 Zrotation Yrotation Xrotation
					JOINT RightArm
					{
						OFFSET -0.096012 0.032551 -0.009143
						CHANNELS 3 Zrotation Yrotation Xrotation
						JOINT RightForeArm
						{
							OFFSET -0.253742 -0.013329 -0.021401
							CHANNELS 3 Zrotation Yrotation Xrotation
							JOINT RightHand
							{
								OFFSET -0.255298 0.007772 -0.005559
								CHANNELS 3 Zrotation Yrotation Xrotation
								End Site
								{
									OFFSET 0.000000 0.000000 0.000000
								}
							}
						}
					}
				}
			}
		}
	}
}
MOTION
Frames: 7
Frame Time: 0.050000
0.000000 0.945260 0.000000 0.451722 0.161955 10.781610 5.033899 -0.507212 -6.544407 -0.009974 0.208151 -6.083936 1.316114 6.347788 10.567249 0.000000 0.000000 0.000000 -4.564351 0.732779 -8.350831 -2.390359 0.057579 -3.052001 -0.848090 -5.799381 9.557040 0.000000 0.000000 0.000000 4.848654 0.394897 -7.442923 -1.927983 0.942576 -6.961019 -3.373779 3.120780 6.210165 4.345173 -1.435248 -13.582179 0.000000 0.000000 0.000000 -14.248615 5.000244 -4.360355 -56.119450 -5.127708 -4.396194 -6.781874 -16.309874 1.475096 0.000000 0.000000 0.000000 12.767924 -11.170005 -5.944076 64.364875 3.534612 -4.018865 2.423550 18.803239 1.137602 0.000000 0.000000 0.000000 
-0.000105 0.944521 0.000303 0.395526 -0.482673 11.568317 5.174207 -0.508505 -6.544704 0.081029 0.238773 -7.036983 1.721939 6.934100 10.482699 0.000000 0.000000 0.000000 -4.773247 0.815601 -9.555166 -2.394371 0.065147 -2.868033 -0.290977 -4.999859 10.303076 0.000000 0.000000 0.000000 6.133809 0.469788 -8.063725 -2.878272 1.299670 -7.487343 -3.933996 4.050104 6.027910 3.932347 -0.926376 -14.978352 0.000000 0.000000 0.000000 -15.146062 5.858538 -5.063929 -54.683146 -4.424112 -4.542819 -7.257815 -16.787964 1.563888 0.000000 0.000000 0.000000 12.404158 -13.102577 -6.747562 65.573462 2.689714 -4.403090 2.398015 18.839612 1.160093 0.000000 0.000000 0.000000 
-0.000299 0.944456 0.000440 0.907129 0.175524 11.337133 4.832934 -0.517871 -6.542237 0.079375 0.200437 -5.991425 1.074609 5.724304 9.823923 0.000000 0.000000 0.000000 -5.293898 0.782512 -9.488926 -2.362353 0.085202 -2.552744 -1.221459 -6.542598 9.546080 0.000000 0.000000 0.000000 5.901704 0.439163 -7.841409 -2.853550 1.299310 -8.128778 -4.576147 3.355540 6.422356 3.990633 -1.098944 -14.129656 0.000000 0.000000 0.000000 -14.514575 5.454093 -4.691772 -54.923090 -3.760065 -4.928415 -7.118770 -16.735700 1.550184 0.000000 0.000000 0.000000 13.099984 -12.304756 -6.500097 64.801740 2.189160 -4.756274 2.925275 18.599661 1.213431 0.000000 0.000000 0.000000 
-0.000483 0.944929 0.000454 1.021909 0.398825 11.692134 5.098605 -0.544918 -7.066119 -0.090636 0.202221 -5.793414 0.577388 4.958759 10.033944 0.000000 0.000000 0.000000 -5.483451 0.805463 -10.003185 -2.422665 0.097300 -2.441552 -1.323531 -6.886921 10.137161 0.000000 0.000000 0.000000 6.056987 0.444232 -7.977039 -3.071800 1.388290 -7.377458 -4.567081 2.928250 5.017916 3.624580 -0.968463 -13.408999 0.000000 0.000000 0.000000 -14.963625 6.693855 -5.359100 -55.220693 -3.773603 -4.803507 -6.034714 -16.768199 1.392193 0.000000 0.000000 0.000000 12.023841 -13.041932 -6.712999 65.392815 1.589964 -4.947582 3.676883 18.565296 1.293760 0.000000 0.000000 0.000000 
-0.000780 0.945641 0.000362 1.206908 1.053568 11.494030 4.838191 -0.550739 -6.997748 -0.037705 0.191015 -5.574341 0.181377 4.279169 9.810576 0.000000 0.000000 0.000000 -5.510623 0.782740 -9.823141 -2.756476 0.128652 -2.421092 -1.742677 -7.585719 9.927695 0.000000 0.000000 0.000000 5.645130 0.392896 -7.539436 -2.590275 1.212531 -7.428853 -4.788495 2.472320 5.115122 3.342480 -0.714766 -14.036104 0.000000 0.000000 0.000000 -15.033159 6.599536 -5.327444 -55.484647 -3.903393 -4.774136 -6.268279 -16.833011 1.431843 0.000000 0.000000 0.000000 11.910212 -12.836534 -6.596896 65.363236 1.766813 -4.852829 3.908799 18.091260 1.287125 0.000000 0.000000 0.000000 
-0.001057 0.946139 0.000258 1.316885 1.235883 11.594731 4.820372 -0.559236 -7.111148 -0.010544 0.182771 -5.379222 0.227009 4.352096 9.732546 0.000000 0.000000 0.000000 -5.588984 0.776283 -9.791501 -3.128927 0.142933 -2.671638 -1.754219 -7.751539 10.578972 0.000000 0.000000 0.000000 5.510221 0.383384 -7.500531 -2.549179 1.200156 -7.524038 -4.812449 2.324879 5.009896 3.416648 -0.783857 -13.874003 0.000000 0.000000 0.000000 -15.418972 6.951612 -5.577713 -55.181140 -3.880125 -4.735256 -6.219953 -16.870840 1.428895 0.000000 0.000000 0.000000 11.706257 -12.764376 -6.531805 65.561128 1.485829 -5.005350 4.192364 18.077400 1.321159 0.000000 0.000000 0.000000 
-0.001287 0.946346 0.000152 1.305390 1.349555 11.477577 4.809432 -0.559477 -7.112027 -0.110020 0.177519 -5.054382 0.354277 4.607147 9.804438 0.000000 0.000000 0.000000 -5.412052 0.775379 -9.704806 -3.335473 0.147974 -2.844325 -1.766846 -7.813633 10.776788 0.000000 0.000000 0.000000 5.435563 0.370166 -7.353415 -2.489807 1.178891 -7.343333 -4.853067 2.142293 4.849466 3.611299 -0.876054 -14.174101 0.000000 0.000000 0.000000 -15.473118 6.847452 -5.524629 -55.239202 -3.683269 -4.813372 -6.615365 -16.844737 1.485777 0.000000 0.000000 0.000000 11.736158 -12.690974 -6.515644 65.499972 1.260638 -5.125607 4.488798 18.201489 1.367838 0.000000 0.000000 0.000000 
